<mxfile host="app.diagrams.net" agent="Mozilla/5.0 (Windows NT 10.0; Win64; x64) AppleWebKit/537.36 (KHTML, like Gecko) Chrome/133.0.0.0 Safari/537.36 OPR/118.0.0.0" version="27.0.5">
  <diagram name="Página-1" id="WvxtheKwjyuipJ-hEAs5">
    <mxGraphModel grid="1" page="1" gridSize="10" guides="1" tooltips="1" connect="1" arrows="1" fold="1" pageScale="1" pageWidth="827" pageHeight="1169" math="0" shadow="0">
      <root>
        <mxCell id="0" />
        <mxCell id="1" parent="0" />
        <mxCell id="noiy4S3DWc4X5YZdUQGe-10" style="edgeStyle=orthogonalEdgeStyle;rounded=0;orthogonalLoop=1;jettySize=auto;html=1;exitX=0;exitY=0;exitDx=0;exitDy=0;entryX=0;entryY=0.5;entryDx=0;entryDy=0;" edge="1" parent="1">
          <mxGeometry relative="1" as="geometry">
            <Array as="points">
              <mxPoint x="130" y="229" />
              <mxPoint x="130" y="320" />
            </Array>
            <mxPoint x="448.4522727852475" y="208.4522727852475" as="sourcePoint" />
          </mxGeometry>
        </mxCell>
        <mxCell id="noiy4S3DWc4X5YZdUQGe-11" value="Catalogo" style="edgeLabel;html=1;align=center;verticalAlign=middle;resizable=0;points=[];" connectable="0" vertex="1" parent="noiy4S3DWc4X5YZdUQGe-10">
          <mxGeometry x="-0.2508" y="1" relative="1" as="geometry">
            <mxPoint x="-147" y="40" as="offset" />
          </mxGeometry>
        </mxCell>
        <mxCell id="noiy4S3DWc4X5YZdUQGe-16" style="edgeStyle=orthogonalEdgeStyle;rounded=0;orthogonalLoop=1;jettySize=auto;html=1;exitX=0.5;exitY=1;exitDx=0;exitDy=0;entryX=0.794;entryY=0.952;entryDx=0;entryDy=0;entryPerimeter=0;" edge="1" parent="1">
          <mxGeometry relative="1" as="geometry">
            <Array as="points">
              <mxPoint x="280" y="490" />
              <mxPoint x="530" y="490" />
            </Array>
            <mxPoint x="530.0440000000001" y="309.952" as="targetPoint" />
          </mxGeometry>
        </mxCell>
        <mxCell id="noiy4S3DWc4X5YZdUQGe-17" value="Status" style="edgeLabel;html=1;align=center;verticalAlign=middle;resizable=0;points=[];" connectable="0" vertex="1" parent="noiy4S3DWc4X5YZdUQGe-16">
          <mxGeometry x="-0.1958" y="4" relative="1" as="geometry">
            <mxPoint as="offset" />
          </mxGeometry>
        </mxCell>
        <mxCell id="1HmOxjIqo43bZKKcaJDt-93" value="Iniciar Sesión" style="ellipse;whiteSpace=wrap;html=1;" vertex="1" parent="1">
          <mxGeometry x="430" y="230" width="120" height="90" as="geometry" />
        </mxCell>
        <mxCell id="1HmOxjIqo43bZKKcaJDt-94" value="Ver permisos Asignados" style="ellipse;whiteSpace=wrap;html=1;" vertex="1" parent="1">
          <mxGeometry x="590" y="350" width="120" height="80" as="geometry" />
        </mxCell>
        <mxCell id="1HmOxjIqo43bZKKcaJDt-95" value="Solicitar modificación de Permiso" style="ellipse;whiteSpace=wrap;html=1;" vertex="1" parent="1">
          <mxGeometry x="660" y="490" width="120" height="80" as="geometry" />
        </mxCell>
        <mxCell id="1HmOxjIqo43bZKKcaJDt-97" value="Aprobar permisos" style="ellipse;whiteSpace=wrap;html=1;" vertex="1" parent="1">
          <mxGeometry x="414" y="30" width="120" height="80" as="geometry" />
        </mxCell>
        <mxCell id="1HmOxjIqo43bZKKcaJDt-98" value="Editar permisos" style="ellipse;whiteSpace=wrap;html=1;" vertex="1" parent="1">
          <mxGeometry x="230" y="560" width="120" height="80" as="geometry" />
        </mxCell>
        <mxCell id="1HmOxjIqo43bZKKcaJDt-99" value="Revocar permisos" style="ellipse;whiteSpace=wrap;html=1;" vertex="1" parent="1">
          <mxGeometry x="390" y="550" width="120" height="80" as="geometry" />
        </mxCell>
        <mxCell id="1HmOxjIqo43bZKKcaJDt-100" value="Generar Reportes de Permiso" style="ellipse;whiteSpace=wrap;html=1;" vertex="1" parent="1">
          <mxGeometry x="300" y="350" width="120" height="80" as="geometry" />
        </mxCell>
        <mxCell id="5jiF6_LQvrcge3cDYIwP-1" style="edgeStyle=orthogonalEdgeStyle;rounded=0;orthogonalLoop=1;jettySize=auto;html=1;exitX=1;exitY=0.3333333333333333;exitDx=0;exitDy=0;exitPerimeter=0;entryX=0;entryY=0.5;entryDx=0;entryDy=0;" edge="1" parent="1" source="1HmOxjIqo43bZKKcaJDt-101" target="1HmOxjIqo43bZKKcaJDt-93">
          <mxGeometry relative="1" as="geometry" />
        </mxCell>
        <mxCell id="1HmOxjIqo43bZKKcaJDt-101" value="Supervisor" style="shape=umlActor;verticalLabelPosition=bottom;verticalAlign=top;html=1;outlineConnect=0;" vertex="1" parent="1">
          <mxGeometry x="60" y="60" width="30" height="60" as="geometry" />
        </mxCell>
        <mxCell id="1HmOxjIqo43bZKKcaJDt-104" value="Administrador de Sistema" style="shape=umlActor;verticalLabelPosition=bottom;verticalAlign=top;html=1;outlineConnect=0;" vertex="1" parent="1">
          <mxGeometry x="50" y="285" width="30" height="60" as="geometry" />
        </mxCell>
        <mxCell id="5jiF6_LQvrcge3cDYIwP-2" style="edgeStyle=orthogonalEdgeStyle;rounded=0;orthogonalLoop=1;jettySize=auto;html=1;exitX=0;exitY=0.3333333333333333;exitDx=0;exitDy=0;exitPerimeter=0;entryX=1;entryY=0.5;entryDx=0;entryDy=0;" edge="1" parent="1" source="1HmOxjIqo43bZKKcaJDt-106" target="1HmOxjIqo43bZKKcaJDt-93">
          <mxGeometry relative="1" as="geometry" />
        </mxCell>
        <mxCell id="1HmOxjIqo43bZKKcaJDt-106" value="Usuario final" style="shape=umlActor;verticalLabelPosition=bottom;verticalAlign=top;html=1;outlineConnect=0;" vertex="1" parent="1">
          <mxGeometry x="970" y="270" width="30" height="60" as="geometry" />
        </mxCell>
        <mxCell id="5jiF6_LQvrcge3cDYIwP-7" value="&lt;b&gt;configurar permisos&lt;/b&gt;" style="shape=umlFrame;whiteSpace=wrap;html=1;pointerEvents=0;width=140;height=30;" vertex="1" parent="1">
          <mxGeometry x="220" y="-20" width="600" height="750" as="geometry" />
        </mxCell>
        <mxCell id="5jiF6_LQvrcge3cDYIwP-12" value="include" style="text;html=1;align=center;verticalAlign=middle;whiteSpace=wrap;rounded=0;rotation=30;" vertex="1" parent="1">
          <mxGeometry x="560" y="300" width="60" height="30" as="geometry" />
        </mxCell>
        <mxCell id="5jiF6_LQvrcge3cDYIwP-13" value="" style="edgeStyle=orthogonalEdgeStyle;rounded=0;orthogonalLoop=1;jettySize=auto;html=1;exitX=1;exitY=0.3333333333333333;exitDx=0;exitDy=0;exitPerimeter=0;entryX=0;entryY=1;entryDx=0;entryDy=0;" edge="1" parent="1" source="1HmOxjIqo43bZKKcaJDt-104" target="1HmOxjIqo43bZKKcaJDt-93">
          <mxGeometry relative="1" as="geometry">
            <mxPoint x="110" y="510" as="sourcePoint" />
            <mxPoint x="550" y="160" as="targetPoint" />
          </mxGeometry>
        </mxCell>
        <mxCell id="1HmOxjIqo43bZKKcaJDt-96" value="Asignar permisos&amp;nbsp;" style="ellipse;whiteSpace=wrap;html=1;" vertex="1" parent="1">
          <mxGeometry x="540" y="570" width="120" height="80" as="geometry" />
        </mxCell>
        <mxCell id="5jiF6_LQvrcge3cDYIwP-15" value="include" style="text;html=1;align=center;verticalAlign=middle;whiteSpace=wrap;rounded=0;rotation=0;" vertex="1" parent="1">
          <mxGeometry x="490" y="130" width="60" height="30" as="geometry" />
        </mxCell>
        <mxCell id="5jiF6_LQvrcge3cDYIwP-17" value="include" style="text;html=1;align=center;verticalAlign=middle;whiteSpace=wrap;rounded=0;rotation=-45;" vertex="1" parent="1">
          <mxGeometry x="420" y="350" width="60" height="30" as="geometry" />
        </mxCell>
        <mxCell id="5jiF6_LQvrcge3cDYIwP-22" value="Extend" style="text;html=1;align=center;verticalAlign=middle;whiteSpace=wrap;rounded=0;rotation=-15;" vertex="1" parent="1">
          <mxGeometry x="690" y="420" width="60" height="30" as="geometry" />
        </mxCell>
        <mxCell id="5jiF6_LQvrcge3cDYIwP-23" value="Extend" style="text;html=1;align=center;verticalAlign=middle;whiteSpace=wrap;rounded=0;rotation=45;" vertex="1" parent="1">
          <mxGeometry x="474" y="460" width="60" height="30" as="geometry" />
        </mxCell>
        <mxCell id="5jiF6_LQvrcge3cDYIwP-24" value="Extend" style="text;html=1;align=center;verticalAlign=middle;whiteSpace=wrap;rounded=0;rotation=45;" vertex="1" parent="1">
          <mxGeometry x="414" y="480" width="60" height="30" as="geometry" />
        </mxCell>
        <mxCell id="5jiF6_LQvrcge3cDYIwP-25" value="Extend" style="text;html=1;align=center;verticalAlign=middle;whiteSpace=wrap;rounded=0;rotation=-48;" vertex="1" parent="1">
          <mxGeometry x="320" y="490" width="60" height="30" as="geometry" />
        </mxCell>
        <mxCell id="o52KVzugkXAgNvcct-pL-3" value="" style="endArrow=classic;html=1;rounded=0;exitX=0.28;exitY=0.953;exitDx=0;exitDy=0;exitPerimeter=0;entryX=1;entryY=0;entryDx=0;entryDy=0;" edge="1" parent="1" source="1HmOxjIqo43bZKKcaJDt-93" target="1HmOxjIqo43bZKKcaJDt-100">
          <mxGeometry width="50" height="50" relative="1" as="geometry">
            <mxPoint x="490" y="390" as="sourcePoint" />
            <mxPoint x="540" y="340" as="targetPoint" />
          </mxGeometry>
        </mxCell>
        <mxCell id="o52KVzugkXAgNvcct-pL-4" value="" style="endArrow=classic;html=1;rounded=0;exitX=0.76;exitY=0.918;exitDx=0;exitDy=0;exitPerimeter=0;entryX=0;entryY=0;entryDx=0;entryDy=0;" edge="1" parent="1" source="1HmOxjIqo43bZKKcaJDt-93" target="1HmOxjIqo43bZKKcaJDt-94">
          <mxGeometry width="50" height="50" relative="1" as="geometry">
            <mxPoint x="490" y="390" as="sourcePoint" />
            <mxPoint x="540" y="340" as="targetPoint" />
          </mxGeometry>
        </mxCell>
        <mxCell id="o52KVzugkXAgNvcct-pL-5" value="" style="endArrow=classic;html=1;rounded=0;exitX=0.5;exitY=0;exitDx=0;exitDy=0;entryX=0.5;entryY=1;entryDx=0;entryDy=0;" edge="1" parent="1" source="1HmOxjIqo43bZKKcaJDt-93" target="1HmOxjIqo43bZKKcaJDt-97">
          <mxGeometry width="50" height="50" relative="1" as="geometry">
            <mxPoint x="490" y="390" as="sourcePoint" />
            <mxPoint x="540" y="340" as="targetPoint" />
          </mxGeometry>
        </mxCell>
        <mxCell id="o52KVzugkXAgNvcct-pL-6" value="" style="html=1;verticalAlign=bottom;endArrow=open;dashed=1;endSize=8;curved=0;rounded=0;entryX=0.363;entryY=0.953;entryDx=0;entryDy=0;entryPerimeter=0;exitX=0.64;exitY=0.038;exitDx=0;exitDy=0;exitPerimeter=0;" edge="1" parent="1" source="1HmOxjIqo43bZKKcaJDt-98" target="1HmOxjIqo43bZKKcaJDt-100">
          <mxGeometry relative="1" as="geometry">
            <mxPoint x="380" y="460" as="sourcePoint" />
            <mxPoint x="300" y="460" as="targetPoint" />
          </mxGeometry>
        </mxCell>
        <mxCell id="o52KVzugkXAgNvcct-pL-7" value="" style="html=1;verticalAlign=bottom;endArrow=open;dashed=1;endSize=8;curved=0;rounded=0;entryX=0.5;entryY=1;entryDx=0;entryDy=0;exitX=0.373;exitY=0.013;exitDx=0;exitDy=0;exitPerimeter=0;" edge="1" parent="1" source="1HmOxjIqo43bZKKcaJDt-99" target="1HmOxjIqo43bZKKcaJDt-100">
          <mxGeometry relative="1" as="geometry">
            <mxPoint x="317" y="573" as="sourcePoint" />
            <mxPoint x="354" y="436" as="targetPoint" />
          </mxGeometry>
        </mxCell>
        <mxCell id="o52KVzugkXAgNvcct-pL-8" value="" style="html=1;verticalAlign=bottom;endArrow=open;dashed=1;endSize=8;curved=0;rounded=0;entryX=0.917;entryY=0.733;entryDx=0;entryDy=0;entryPerimeter=0;exitX=0;exitY=0;exitDx=0;exitDy=0;" edge="1" parent="1" source="1HmOxjIqo43bZKKcaJDt-96" target="1HmOxjIqo43bZKKcaJDt-100">
          <mxGeometry relative="1" as="geometry">
            <mxPoint x="327" y="583" as="sourcePoint" />
            <mxPoint x="364" y="446" as="targetPoint" />
          </mxGeometry>
        </mxCell>
        <mxCell id="o52KVzugkXAgNvcct-pL-9" value="" style="html=1;verticalAlign=bottom;endArrow=open;dashed=1;endSize=8;curved=0;rounded=0;entryX=0.767;entryY=0.973;entryDx=0;entryDy=0;entryPerimeter=0;exitX=0.403;exitY=0.043;exitDx=0;exitDy=0;exitPerimeter=0;" edge="1" parent="1" source="1HmOxjIqo43bZKKcaJDt-95" target="1HmOxjIqo43bZKKcaJDt-94">
          <mxGeometry relative="1" as="geometry">
            <mxPoint x="620" y="563.5" as="sourcePoint" />
            <mxPoint x="657" y="426.5" as="targetPoint" />
          </mxGeometry>
        </mxCell>
      </root>
    </mxGraphModel>
  </diagram>
</mxfile>
